# xmcd
#
# Track frame offsets: 
#        150
#        14252
#        29817
#        57602
#        76187
#        93607
#        116055
#        130822
#        147707
#        162262
#
# Disc length: 2416 seconds
#
# Revision: 0
# Processed by: cddbd v1.5.1PL0 Copyright (c) Steve Scherf et al.
# Submitted via: ExactAudioCopy v0.95a5
#
DISCID=90096e0a
DTITLE=Sonja Wood - At The Drop Of A Hat
DYEAR=1996
DGENRE=country
TTITLE0=Bad Time Blues
TTITLE1=This World Today
TTITLE2=Daddy
TTITLE3=Bein' In The Country
TTITLE4=Empty Pocket Blues
TTITLE5=Your Lies
TTITLE6=Take Me Down To The River
TTITLE7=Pages Of Time
TTITLE8=Welded Hearts
TTITLE9=Mount Thom
EXTD=
EXTT0=
EXTT1=
EXTT2=
EXTT3=
EXTT4=
EXTT5=
EXTT6=
EXTT7=
EXTT8=
EXTT9=
PLAYORDER=
